D:\PredSim\limbproperties\Ratio80_uphill20\Ratio80_uphill20_IK_walking_1.5.mot
version=1
nRows=4
nColumns=124
inDegrees=yes
endheader
                time	         pelvis_tilt	         pelvis_list	     pelvis_rotation	           pelvis_tx	           pelvis_ty	           pelvis_tz	       hip_flexion_r	     hip_adduction_r	      hip_rotation_r	        knee_angle_r	       ankle_angle_r	    subtalar_angle_r	         mtp_angle_r	       hip_flexion_l	     hip_adduction_l	      hip_rotation_l	        knee_angle_l	       ankle_angle_l	    subtalar_angle_l	         mtp_angle_l	    lumbar_extension	      lumbar_bending	     lumbar_rotation	          arm_flex_r	           arm_add_r	           arm_rot_r	        elbow_flex_r	          arm_flex_l	           arm_add_l	           arm_rot_l	        elbow_flex_l	glut_med1_r/activation	glut_med2_r/activation	glut_med3_r/activation	glut_min1_r/activation	glut_min2_r/activation	glut_min3_r/activation	semimem_r/activation	semiten_r/activation	bifemlh_r/activation	bifemsh_r/activation	    sar_r/activation	add_long_r/activation	add_brev_r/activation	add_mag1_r/activation	add_mag2_r/activation	add_mag3_r/activation	    tfl_r/activation	   pect_r/activation	   grac_r/activation	glut_max1_r/activation	glut_max2_r/activation	glut_max3_r/activation	iliacus_r/activation	  psoas_r/activation	quad_fem_r/activation	    gem_r/activation	   peri_r/activation	rect_fem_r/activation	vas_med_r/activation	vas_int_r/activation	vas_lat_r/activation	med_gas_r/activation	lat_gas_r/activation	 soleus_r/activation	tib_post_r/activation	flex_dig_r/activation	flex_hal_r/activation	tib_ant_r/activation	per_brev_r/activation	per_long_r/activation	per_tert_r/activation	ext_dig_r/activation	ext_hal_r/activation	glut_med1_l/activation	glut_med2_l/activation	glut_med3_l/activation	glut_min1_l/activation	glut_min2_l/activation	glut_min3_l/activation	semimem_l/activation	semiten_l/activation	bifemlh_l/activation	bifemsh_l/activation	    sar_l/activation	add_long_l/activation	add_brev_l/activation	add_mag1_l/activation	add_mag2_l/activation	add_mag3_l/activation	    tfl_l/activation	   pect_l/activation	   grac_l/activation	glut_max1_l/activation	glut_max2_l/activation	glut_max3_l/activation	iliacus_l/activation	  psoas_l/activation	quad_fem_l/activation	    gem_l/activation	   peri_l/activation	rect_fem_l/activation	vas_med_l/activation	vas_int_l/activation	vas_lat_l/activation	med_gas_l/activation	lat_gas_l/activation	 soleus_l/activation	tib_post_l/activation	flex_dig_l/activation	flex_hal_l/activation	tib_ant_l/activation	per_brev_l/activation	per_long_l/activation	per_tert_l/activation	ext_dig_l/activation	ext_hal_l/activation	 ercspn_r/activation	 ercspn_l/activation	 intobl_r/activation	 intobl_l/activation	 extobl_r/activation	 extobl_l/activation	
          1.36557695	        -19.79292692	          6.80933828	          0.02632471	          2.03279595	          0.84380007	         -0.00269203	         -4.98408619	         -6.18394626	          7.18966490	        -16.37980657	          5.40272590	         19.12536231	         21.72404080	         53.99362688	          8.08887001	         -7.48994063	        -40.62780343	         16.65088943	         -7.61136042	          0.19872708	         -6.59477615	         -6.85758625	          5.59209932	          3.50981532	        -13.47968336	         18.68360534	         44.17140245	          5.94519163	        -14.83111642	         13.48543533	         46.17956520	          0.15077264	          0.09099263	          0.09071729	          0.33665090	          0.25412528	          0.16989471	          0.05000011	          0.05000006	          0.05000004	          0.05000006	          0.06631553	          0.34697841	          0.06242004	          0.05000675	          0.05000102	          0.06009523	          0.70841336	          0.06634377	          0.05000033	          0.06580665	          0.05000043	          0.05000021	          0.64718697	          0.90612707	          0.39806668	          0.09011928	          0.11060907	          0.55558006	          0.20532089	          0.20279251	          0.17829069	          0.63987279	          0.76894235	          0.20553247	          0.50313037	          0.60542854	          0.73221170	          0.05000000	          0.33381771	          0.36890785	          0.05000002	          0.05000000	          0.05000002	          0.20938569	          0.13065507	          0.13949108	          0.05000626	          0.05000359	          0.05001139	          0.43862308	          0.05000012	          0.76033433	          0.06737702	          0.13557330	          0.10132264	          0.49355322	          0.52266443	          0.42753410	          0.29944726	          0.06698229	          0.05003505	          0.05000044	          0.36408803	          0.28593797	          0.31214013	          0.10132693	          0.10132713	          0.70206462	          0.08834073	          0.50112864	          0.06896102	          0.18990906	          0.19449219	          0.15095846	          0.05000001	          0.05000003	          0.05279304	          0.05758613	          0.05000031	          0.05000343	          0.62504234	          0.38878398	          0.21192945	          0.39137860	          0.79724388	          0.44155864	          0.15032857	          0.19857803	          0.05000003	          0.05000001	          0.05000000	          0.05000004	
          1.37468079	        -19.82678200	          6.90061634	         -0.31117252	          2.04859584	          0.84387713	         -0.00317613	         -5.24926608	         -6.43378661	          7.24497231	        -16.99169084	          2.44923160	         19.50328288	         23.11913101	         53.25668835	          8.33842639	         -7.17965741	        -39.68051786	         16.37035949	         -7.59350313	          0.18574240	         -6.40289636	         -6.98080927	          5.68980105	          3.26671976	        -13.49247736	         18.81496824	         44.59146327	          5.32155133	        -14.88852878	         13.17458078	         46.33334890	          0.13090964	          0.07900529	          0.07876654	          0.29230002	          0.22064646	          0.14751258	          0.05000014	          0.05000006	          0.05000003	          0.05000005	          0.05757927	          0.40597508	          0.12277603	          0.17187344	          0.05003695	          0.05217896	          0.73452685	          0.05760402	          0.05000031	          0.05714918	          0.08118307	          0.05000249	          0.59694413	          0.94158218	          0.42405173	          0.07825249	          0.09603735	          0.59243717	          0.17827162	          0.17607633	          0.15480241	          0.55557502	          0.68724414	          0.17845531	          0.47671874	          0.52570010	          0.63574963	          0.05000000	          0.34290671	          0.35880118	          0.05000002	          0.05000000	          0.05000003	          0.18180102	          0.12569103	          0.30230842	          0.05758657	          0.05758653	          0.05758658	          0.45462085	          0.05000014	          0.75608364	          0.05850067	          0.11771267	          0.08797644	          0.59008312	          0.59093786	          0.45247494	          0.29984978	          0.05815795	          0.05000985	          0.05000065	          0.42867046	          0.32485511	          0.32825060	          0.08797797	          0.08797814	          0.81459260	          0.07670426	          0.61567272	          0.06632416	          0.25187064	          0.25483385	          0.19942784	          0.05000000	          0.05000000	          0.05000000	          0.05000002	          0.05000019	          0.05000006	          0.69309366	          0.37744572	          0.20474318	          0.48125539	          0.87382320	          0.38686375	          0.16654420	          0.19467772	          0.05000001	          0.05000001	          0.05000000	          0.05000001	
          1.38378464	        -19.85552746	          6.95734113	         -0.64463888	          2.06459693	          0.84381289	         -0.00363629	         -5.29346166	         -6.60031940	          7.30187645	        -17.99864502	         -0.53007069	         19.75051200	         24.34051842	         52.33728119	          8.61015628	         -6.77306318	        -39.34319404	         16.04058513	         -7.58024127	          0.18485091	         -6.17975785	         -7.06638792	          5.76779258	          3.00518504	        -13.50176688	         18.94726421	         44.97141955	          4.66587199	        -14.93741121	         12.86266272	         46.45257655	          0.11366342	          0.06860017	          0.07635506	          0.25379200	          0.19157819	          0.12807911	          0.05000016	          0.05000007	          0.05000016	          0.05000003	          0.05000043	          0.35249142	          0.16483422	          0.27755009	          0.13440966	          0.11670095	          0.74585880	          0.05001559	          0.05000055	          0.06632527	          0.08795297	          0.11670152	          0.51830183	          0.94640724	          0.36818708	          0.06794464	          0.08338528	          0.55704667	          0.15478585	          0.15287977	          0.13440851	          0.48238274	          0.59670579	          0.15494533	          0.41613514	          0.45644416	          0.55199515	          0.05000000	          0.29773200	          0.33114073	          0.05000003	          0.05000000	          0.05000003	          0.22637028	          0.10913234	          0.26248194	          0.05000008	          0.05000008	          0.05000018	          0.44220584	          0.05000007	          0.69998278	          0.05079371	          0.10220503	          0.07638661	          0.51234488	          0.53582390	          0.41789821	          0.28662612	          0.05049616	          0.06625373	          0.05000125	          0.43385129	          0.30604210	          0.29370891	          0.07638762	          0.07638777	          0.88461957	          0.06785305	          0.76082905	          0.05758654	          0.28196056	          0.28929659	          0.22562427	          0.06632417	          0.06632416	          0.06632418	          0.05000007	          0.05000062	          0.06632422	          0.60178445	          0.38356316	          0.19359176	          0.41785410	          0.76138495	          0.33589776	          0.15759779	          0.17357719	          0.05758662	          0.05000000	          0.05000000	          0.05000157	
          1.39288848	        -19.88017207	          6.99284839	         -0.97568719	          2.08071859	          0.84364026	         -0.00406370	         -5.14484454	         -6.70735050	          7.35232948	        -19.33390089	         -3.48877561	         19.89037139	         25.19325509	         51.23318548	          8.89734151	         -6.22675661	        -39.28861909	         15.93117530	         -7.57932084	          0.14884483	         -5.93799037	         -7.12880040	          5.82820077	          2.73464528	        -13.50501078	         19.06704947	         45.31414371	          4.00146528	        -14.97884318	         12.56547478	         46.52291961	          0.11670182	          0.05956272	          0.06629593	          0.22036066	          0.16633946	          0.11120580	          0.05000059	          0.05000041	          0.05000029	          0.05000006	          0.05000027	          0.32389399	          0.23955295	          0.24098527	          0.11670242	          0.10132667	          0.79450640	          0.05758708	          0.05000101	          0.05758776	          0.07636598	          0.10132709	          0.49734499	          0.93869823	          0.31968155	          0.05899354	          0.07239999	          0.48366050	          0.13439413	          0.13273916	          0.11670133	          0.41883291	          0.51809491	          0.13453260	          0.36131290	          0.39631164	          0.47927453	          0.05000000	          0.25850839	          0.28751582	          0.05000002	          0.05000000	          0.05000002	          0.30989866	          0.44560649	          0.54103710	          0.05758652	          0.13511402	          0.40880802	          0.40858079	          0.21620491	          0.61951477	          0.07638818	          0.08874039	          0.06632338	          0.44484780	          0.46523367	          0.36284371	          0.27837260	          0.05000003	          0.05752708	          0.25532148	          0.56618813	          0.39910715	          0.30794982	          0.06632420	          0.06632433	          0.92819790	          0.38192292	          0.85116209	          0.05000001	          0.30727278	          0.32622698	          0.25432841	          0.05758652	          0.05758652	          0.05758653	          0.05758817	          0.05758660	          0.05758664	          0.75218754	          0.33303198	          0.16808769	          0.58750294	          0.85150810	          0.58672419	          0.15358794	          0.15070987	          0.05000007	          0.07638762	          0.05758660	          0.05000000	
